<svg width="432" height="224" viewBox="0 0 432 224" fill="none" xmlns="http://www.w3.org/2000/svg">
<path d="M146.833 29.0005V35.8338H161.667H176.5V29.0005V22.1672H161.667H146.833V29.0005Z" fill="#5C00FF" stroke="#5C5C5C"/>
<path d="M98.8333 52.2005V52.6749L98.3596 52.6998L90.7596 53.0998L90.7591 53.0999L83.5 53.4753V60.3339V67.1672H97.6666H111.846L112.233 52.5873L112.233 52.5872L112.62 38.1672H105.667H98.8333V45.0005V52.2005Z" fill="#5C00FF" stroke="#5C5C5C"/>
<path d="M367.337 54.3715L367.332 54.3847L367.326 54.3976C367.256 54.5622 367.179 54.894 367.115 55.3951C367.053 55.8819 367.008 56.4868 366.983 57.1687C366.934 58.532 366.967 60.1788 367.098 61.7591H367.098L367.099 61.7666L367.468 67.1849L384.353 67.8343L401.686 68.501L402.159 68.5192L402.167 68.993L402.567 95.1263L402.567 95.1288L402.831 120.921L408.016 125.976L408.02 125.98C409.496 127.456 410.843 128.937 411.825 130.173C412.315 130.79 412.721 131.355 413.008 131.833C413.151 132.072 413.27 132.299 413.354 132.506C413.435 132.705 413.5 132.923 413.5 133.134C413.5 133.335 413.431 133.55 413.354 133.737C413.271 133.938 413.155 134.167 413.014 134.415C412.73 134.912 412.327 135.52 411.838 136.194C410.859 137.545 409.513 139.192 408.036 140.804C408.036 140.805 408.035 140.805 408.035 140.805L402.831 146.529L402.567 172.339L402.567 172.342L402.167 198.342L402.159 198.823L401.678 198.834L384.078 199.234L384.078 199.234L366.833 199.623V206.334V213.167H386.733H406.923L413.043 206.917L419.167 200.663V173.534V146.201V145.99L419.317 145.843L425.317 139.976L425.32 139.973C426.979 138.381 428.469 136.825 429.541 135.604C430.078 134.993 430.505 134.472 430.795 134.076C430.94 133.877 431.044 133.719 431.11 133.603C431.121 133.584 431.13 133.566 431.138 133.551C431.132 133.54 431.125 133.529 431.117 133.516C431.05 133.404 430.943 133.248 430.797 133.051C430.505 132.659 430.076 132.131 429.539 131.511C428.466 130.273 426.976 128.684 425.32 127.095L425.32 127.095L425.313 127.088L419.313 121.088L419.167 120.941V120.734V93.4006V66.4105L412.25 59.6242L405.329 52.834H386.6C379.13 52.834 374.353 52.9343 371.38 53.2151C369.89 53.3558 368.888 53.5391 368.238 53.763C367.577 53.9905 367.392 54.2201 367.337 54.3715ZM431.183 133.64C431.184 133.642 431.183 133.64 431.18 133.633C431.181 133.637 431.182 133.639 431.183 133.64Z" fill="#5C00FF" stroke="#5C5C5C"/>
<path d="M64.3301 53.038L64.3349 53.0512L64.3404 53.0641C64.411 53.2287 64.488 53.5605 64.5519 54.0616C64.614 54.5484 64.659 55.1533 64.6837 55.8352C64.7329 57.1985 64.7001 58.8452 64.5684 60.4256H64.5683L64.5678 60.4331L64.1984 65.8514L47.3141 66.5008L29.9808 67.1675L29.5073 67.1857L29.5001 67.6594L29.1001 93.7928L29.1 93.7953L28.8355 119.588L23.6509 124.642L23.6464 124.647C22.1708 126.122 20.8237 127.604 19.8419 128.839C19.3517 129.456 18.9452 130.021 18.6586 130.5C18.5154 130.739 18.3967 130.965 18.3124 131.172C18.2314 131.371 18.1667 131.589 18.1667 131.8C18.1667 132.002 18.2361 132.216 18.3129 132.404C18.3954 132.605 18.5118 132.834 18.6531 133.081C18.9364 133.578 19.3395 134.186 19.8285 134.861C20.8077 136.211 22.1532 137.859 23.6308 139.471C23.631 139.471 23.6312 139.471 23.6314 139.472L28.8353 145.196L29.1 171.006L29.1001 171.008L29.5001 197.008L29.5075 197.489L29.9886 197.5L47.5886 197.9L47.5887 197.9L64.8333 198.289V205V211.834H44.9333H24.7435L18.6239 205.584L12.5 199.33V172.2V144.867V144.657L12.3496 144.51L6.34957 138.643L6.34626 138.64C4.688 137.048 3.1981 135.491 2.12566 134.27C1.5886 133.659 1.16187 133.138 0.872147 132.743C0.726601 132.544 0.622391 132.386 0.556839 132.269C0.545975 132.25 0.536713 132.233 0.52887 132.218C0.535019 132.207 0.541893 132.195 0.549538 132.182C0.616928 132.07 0.723274 131.915 0.86998 131.718C1.16189 131.325 1.59062 130.798 2.12784 130.178C3.20115 128.939 4.69061 127.351 6.34626 125.761L6.34634 125.761L6.35355 125.754L12.3536 119.754L12.5 119.608V119.4V92.0671V65.077L19.4168 58.2907L26.3377 51.5004H45.0667C52.5367 51.5004 57.3135 51.6008 60.2863 51.8815C61.7764 52.0223 62.7784 52.2056 63.429 52.4295C64.09 52.657 64.275 52.8866 64.3301 53.038ZM0.483856 132.306C0.482948 132.309 0.483398 132.307 0.486313 132.3C0.485214 132.303 0.484337 132.305 0.483856 132.306Z" fill="#5C00FF" stroke="#5C5C5C"/>
<path d="M68.1417 90.1218L68.1408 90.1222C60.7546 93.4913 56.7494 101.782 58.6825 109.269C59.595 112.46 60.9185 114.838 63.319 117.013C65.7408 119.208 69.28 121.215 74.6697 123.61C77.0974 124.689 79.6214 126.103 81.7417 127.5C83.8474 128.887 85.6046 130.289 86.4571 131.355L86.4588 131.357C88.9259 134.475 89.8241 137.631 89.4628 140.513C89.102 143.39 87.4937 145.927 85.0756 147.827C80.2457 151.622 72.1486 152.921 63.8738 149.462L63.8738 149.462L63.8711 149.461C62.5589 148.903 61.4574 148.56 60.5605 148.413C59.6575 148.264 59.0069 148.321 58.5628 148.511C58.1442 148.689 57.8662 149.002 57.7216 149.497C57.5701 150.015 57.5648 150.742 57.757 151.703L57.757 151.703L57.7583 151.71C57.8904 152.423 58.4506 153.165 59.4727 153.875C60.4856 154.579 61.89 155.205 63.5753 155.705C66.9434 156.702 71.3464 157.164 75.7554 156.769L75.7592 156.769C83.0297 156.174 88.3298 154.131 91.6973 150.78C95.0513 147.442 96.5602 142.733 96.1014 136.638C95.7736 132.312 94.6663 129.126 92.274 126.397C89.8643 123.647 86.113 121.317 80.3979 118.791C73.8563 115.921 69.6117 113.21 67.4104 110.142C65.1669 107.015 65.0931 103.593 66.6664 99.4883L66.6682 99.4837C67.2222 98.0802 68.4107 96.8983 69.9434 95.9615C71.4808 95.0217 73.4024 94.3044 75.4928 93.8456C79.6675 92.9292 84.6011 93.0256 88.6413 94.5321L88.6414 94.532L88.6524 94.5364L88.7817 94.5881C89.7257 94.9658 90.4012 95.2361 90.9177 95.3874C91.4707 95.5495 91.7159 95.5337 91.8515 95.475C91.9762 95.4211 92.1315 95.2763 92.3398 94.8002C92.5224 94.3828 92.7057 93.811 92.9583 93.023C92.9892 92.9266 93.0211 92.8269 93.0542 92.7239C93.3802 91.5464 93.3467 90.9611 93.0154 90.5156C92.835 90.273 92.535 90.0278 92.0417 89.7646C91.5492 89.5018 90.8948 89.2369 90.0364 88.9398L90.0331 88.9386C83.7622 86.7176 74.43 87.2396 68.1417 90.1218Z" fill="#5C00FF" stroke="#5C5C5C"/>
<path d="M236.171 155.834H239.667H243.167V141.667V127.001V126.501H243.667H251C256.028 126.501 259.348 127.165 261.881 129.858C264.364 132.498 266.022 137.025 268.016 144.471L268.017 144.475C268.751 147.311 269.315 149.45 269.808 151.07C270.302 152.696 270.713 153.759 271.13 154.462C271.535 155.145 271.928 155.457 272.39 155.624C272.891 155.804 273.521 155.834 274.467 155.834C275.509 155.834 276.429 155.736 277.073 155.567C277.399 155.482 277.621 155.387 277.751 155.3C277.797 155.269 277.821 155.247 277.833 155.233C277.824 154.197 277.42 152.167 276.75 149.604C276.078 147.036 275.156 143.993 274.159 141.009C273.162 138.025 272.091 135.108 271.122 132.791C270.637 131.633 270.181 130.63 269.774 129.848C269.359 129.048 269.02 128.528 268.78 128.287L268.77 128.278L268.762 128.268C267.856 127.262 267.155 126.392 266.688 125.617C266.223 124.845 265.959 124.116 266.001 123.405C266.044 122.675 266.402 122.055 266.988 121.497C267.565 120.948 268.39 120.431 269.434 119.892C274.529 117.151 276.724 111.088 276.185 105.011C275.647 98.9387 272.388 93.0378 266.808 90.6624C264.077 89.5579 259.671 88.7304 254.991 88.3321C250.316 87.9342 245.428 87.9695 241.749 88.5604C241.748 88.5605 241.747 88.5607 241.746 88.5609L236.828 89.4215L236.433 122.605L236.433 122.607L236.171 155.834ZM277.844 155.219C277.844 155.219 277.842 155.221 277.841 155.224C277.843 155.221 277.844 155.219 277.844 155.219ZM252.5 120.566L252.497 120.566L243.697 121.1L243.167 121.132V120.601V108.067C243.167 104.593 243.267 101.313 243.451 98.8302C243.544 97.5904 243.657 96.5386 243.793 95.757C243.86 95.3675 243.935 95.0313 244.02 94.7672C244.063 94.6353 244.111 94.5101 244.168 94.4006C244.218 94.3043 244.291 94.1884 244.399 94.0952C244.549 93.9549 244.751 93.8676 244.928 93.8072C245.128 93.7385 245.371 93.6801 245.642 93.6298C246.186 93.5288 246.892 93.4522 247.702 93.4015C249.326 93.3001 251.413 93.3004 253.565 93.4349L253.565 93.4348L253.572 93.4354C256.968 93.7017 259.142 94.0045 260.875 94.7219C262.63 95.4489 263.891 96.5836 265.506 98.4001C268.088 101.255 269.433 104.102 269.433 107.001C269.433 109.898 268.089 112.744 265.508 115.598C263.83 117.545 262.595 118.691 260.724 119.386C258.893 120.066 256.481 120.301 252.5 120.566Z" fill="#5C00FF" stroke="#5C5C5C"/>
<path d="M114.954 90.2874C112.785 92.4564 113.272 95.7923 115.773 97.2282C117.339 98.0403 118.786 98.1375 119.939 97.6998C121.09 97.2628 122.028 96.2626 122.523 94.7158C123.244 92.4317 122.204 90.4958 120.549 89.5327C118.889 88.5672 116.642 88.5987 114.954 90.2874Z" fill="#5C00FF" stroke="#5C5C5C"/>
<path d="M144.433 131.385L144.433 131.385L144.433 131.391C144.567 138.39 144.8 142.966 145.212 146.136C145.624 149.297 146.21 151.018 147.022 152.332C147.952 153.755 149.508 154.893 151.363 155.703C153.216 156.512 155.331 156.979 157.326 157.085C159.329 157.19 161.165 156.93 162.479 156.327C163.782 155.73 164.5 154.84 164.5 153.667C164.5 152.736 164.283 152.262 163.915 151.982C163.505 151.672 162.786 151.501 161.533 151.501C159.586 151.501 156.849 150.815 155.326 150.122L155.302 150.112L155.28 150.098C154.674 149.742 154.154 149.338 153.75 148.654C153.357 147.987 153.1 147.094 152.921 145.802C152.566 143.227 152.5 138.852 152.5 131.001V113.667V113.167H153H159C160.368 113.167 161.406 113.15 162.199 113.08C163.002 113.008 163.495 112.886 163.809 112.713C164.089 112.558 164.249 112.352 164.352 112.006C164.464 111.627 164.5 111.102 164.5 110.334C164.5 109.567 164.465 109.04 164.353 108.66C164.252 108.312 164.093 108.106 163.822 107.953C163.517 107.782 163.037 107.659 162.255 107.588C161.48 107.518 160.468 107.501 159.133 107.501H153.133H152.664L152.634 107.032L152.234 100.766L152.234 100.764C152.134 99.1017 152.003 97.8255 151.795 96.8694C151.584 95.9029 151.311 95.3397 150.987 95.0277C150.69 94.7421 150.285 94.6074 149.63 94.6692C148.957 94.7328 148.081 95.0004 146.923 95.4632C145.712 95.9738 145.079 96.4733 144.705 97.292C144.306 98.1639 144.167 99.4599 144.167 101.667C144.167 102.869 144.142 103.826 144.057 104.581C143.973 105.33 143.826 105.934 143.543 106.395C143.243 106.883 142.819 107.168 142.287 107.323C141.782 107.469 141.169 107.501 140.467 107.501C138.889 107.501 137.868 107.973 137.33 108.672C136.799 109.362 136.643 110.4 137.068 111.757C137.208 112.06 137.58 112.414 138.181 112.699C138.78 112.983 139.54 113.167 140.333 113.167C141.062 113.167 141.805 113.168 142.395 113.568C143.008 113.983 143.344 114.737 143.574 115.886C143.807 117.051 143.954 118.756 144.076 121.236C144.198 123.696 144.298 126.948 144.429 131.241L144.433 131.385Z" fill="#5C00FF" stroke="#5C5C5C"/>
<path d="M114.833 131.534V155.834H118.333H121.828L121.567 131.942L121.567 131.939L121.174 108.116L118.013 107.764L118.011 107.764L114.833 107.424V131.534Z" fill="#5C00FF" stroke="#5C5C5C"/>
<path d="M377.308 145.976L377.309 145.974C378.024 142.201 377.593 139.245 375.803 136.615C373.993 133.957 370.754 131.57 365.71 129.048L365.707 129.046C361.113 126.716 358.143 124.771 356.664 122.764C355.911 121.742 355.533 120.69 355.533 119.563C355.533 118.447 355.904 117.306 356.56 116.096C357.581 114.202 359.525 112.968 361.889 112.43C364.253 111.891 367.073 112.034 369.941 112.921C371.119 113.248 372.256 113.474 373.138 113.57C373.581 113.619 373.945 113.632 374.21 113.614C374.343 113.605 374.436 113.589 374.496 113.572C374.516 113.567 374.528 113.562 374.536 113.559C375.136 113.002 375.328 111.9 375.062 110.728C374.798 109.56 374.135 108.584 373.355 108.268C372.692 108.028 371.515 107.849 370.023 107.743C368.542 107.638 366.8 107.609 365.045 107.65C363.29 107.692 361.531 107.804 360.016 107.979C358.494 108.154 357.257 108.39 356.517 108.666C351.922 110.584 349.1 114.924 349.1 120.334C349.1 123.561 349.53 125.588 350.924 127.339C352.347 129.125 354.817 130.684 359.09 132.82C363.491 135.02 366.413 136.746 368.236 138.397C370.088 140.074 370.833 141.702 370.833 143.667C370.833 146.369 369.648 148.467 367.493 149.778C365.368 151.071 362.348 151.57 358.691 151.232C356.949 151.098 355.107 150.897 353.563 150.679C352.056 150.466 350.777 150.229 350.175 150.009C349.909 149.931 349.719 149.932 349.587 149.967C349.462 150 349.347 150.075 349.24 150.225C349.003 150.557 348.833 151.22 348.833 152.334C348.833 153.054 348.884 153.572 349.016 153.973C349.142 154.353 349.346 154.642 349.695 154.897C350.06 155.164 350.596 155.402 351.401 155.642C352.202 155.881 353.231 156.11 354.562 156.376C360.552 157.495 365.874 156.959 369.874 155.113C373.863 153.272 376.542 150.13 377.308 145.976Z" fill="#5C00FF" stroke="#5C5C5C"/>
<g clip-path="url(#clip0_137_47)">
<rect x="178" y="52" width="15" height="17" fill="#5C00FF"/>
<rect width="15" height="17" transform="translate(178 52)" fill="#5C00FF"/>
</g>
<rect x="178.5" y="52.5" width="14" height="16" stroke="#5C5C5C"/>
<g clip-path="url(#clip1_137_47)">
<rect x="228" width="15" height="17" fill="#5C00FF"/>
<rect width="15" height="17" transform="translate(228)" fill="#5C00FF"/>
</g>
<rect x="228.5" y="0.5" width="14" height="16" stroke="#5C5C5C"/>
<g clip-path="url(#clip2_137_47)">
<rect x="178" y="6" width="15" height="17" fill="#5C00FF"/>
<rect width="15" height="17" transform="translate(178 6)" fill="#5C00FF"/>
</g>
<rect x="178.5" y="6.5" width="14" height="16" stroke="#5C5C5C"/>
<g clip-path="url(#clip3_137_47)">
<rect x="131" y="52" width="15" height="17" fill="#5C00FF"/>
<rect width="15" height="17" transform="translate(131 52)" fill="#5C00FF"/>
</g>
<rect x="131.5" y="52.5" width="14" height="16" stroke="#5C5C5C"/>
<g clip-path="url(#clip4_137_47)">
<rect x="67" y="21" width="15" height="17" fill="#5C00FF"/>
<rect width="15" height="17" transform="translate(67 21)" fill="#5C00FF"/>
</g>
<rect x="67.5" y="21.5" width="14" height="16" stroke="#5C5C5C"/>
<path d="M142.943 209.213V214H120.876V184.417H127.07V209.213H142.943ZM152.754 214.42C150.556 214.42 148.841 213.825 147.61 212.635C146.378 211.431 145.762 209.745 145.762 207.575C145.762 205.224 146.525 203.439 148.05 202.221C149.59 201.003 151.816 200.367 154.727 200.311L159.619 200.227V199.072C159.619 197.588 159.36 196.489 158.842 195.775C158.325 195.048 157.478 194.684 156.302 194.684C155.21 194.684 154.405 194.936 153.887 195.439C153.383 195.929 153.069 196.748 152.943 197.896L146.791 197.602C147.561 193.109 150.815 190.862 156.554 190.862C159.423 190.862 161.635 191.569 163.189 192.983C164.742 194.397 165.519 196.405 165.519 199.009V207.281C165.519 208.555 165.659 209.437 165.939 209.927C166.233 210.403 166.716 210.641 167.388 210.641C167.836 210.641 168.27 210.599 168.69 210.515V213.706C167.962 213.888 167.339 214.021 166.821 214.105C166.303 214.203 165.666 214.252 164.91 214.252C163.427 214.252 162.328 213.888 161.614 213.16C160.914 212.432 160.494 211.361 160.354 209.948H160.228C159.402 211.431 158.367 212.551 157.121 213.307C155.875 214.049 154.419 214.42 152.754 214.42ZM159.619 203.481L156.596 203.523C155.21 203.593 154.237 203.74 153.677 203.964C153.104 204.216 152.663 204.594 152.355 205.098C152.061 205.602 151.914 206.273 151.914 207.113C151.914 208.191 152.159 208.996 152.649 209.528C153.153 210.046 153.817 210.305 154.643 210.305C155.567 210.305 156.414 210.053 157.184 209.549C157.94 209.045 158.534 208.352 158.968 207.47C159.402 206.574 159.619 205.63 159.619 204.636V203.481ZM177.555 201.822V214H171.655V196.363C171.655 195.146 171.634 194.152 171.592 193.382C171.564 192.598 171.529 191.898 171.487 191.282H177.114C177.142 191.45 177.177 191.849 177.219 192.479C177.261 193.095 177.296 193.732 177.324 194.39C177.366 195.034 177.387 195.502 177.387 195.796H177.471C178.269 194.061 179.27 192.801 180.473 192.017C181.677 191.233 183.112 190.841 184.778 190.841C187.185 190.841 189.033 191.583 190.321 193.067C191.608 194.551 192.252 196.72 192.252 199.576V214H186.373V201.255C186.373 199.254 186.037 197.756 185.366 196.762C184.694 195.768 183.679 195.271 182.321 195.271C180.893 195.271 179.739 195.887 178.857 197.119C177.989 198.337 177.555 199.905 177.555 201.822ZM207.668 223.112C204.897 223.112 202.664 222.58 200.971 221.517C199.291 220.467 198.255 218.962 197.863 217.002L203.763 216.31C203.973 217.219 204.421 217.933 205.107 218.451C205.807 218.969 206.717 219.228 207.836 219.228C209.474 219.228 210.671 218.724 211.427 217.716C212.183 216.708 212.561 215.211 212.561 213.223L212.603 209.78H212.561C211.917 211.18 210.986 212.229 209.768 212.929C208.55 213.615 207.046 213.958 205.254 213.958C202.608 213.958 200.558 212.964 199.102 210.977C197.646 208.989 196.918 206.147 196.918 202.452C196.918 198.743 197.667 195.88 199.165 193.865C200.663 191.849 202.839 190.841 205.695 190.841C207.346 190.841 208.739 191.184 209.873 191.87C211.021 192.542 211.917 193.564 212.561 194.936H212.666C212.666 194.6 212.68 194.18 212.707 193.676C212.735 193.172 212.77 192.689 212.812 192.227C212.868 191.765 212.917 191.45 212.959 191.282H218.544C218.46 192.794 218.418 194.544 218.418 196.531V213.307C218.418 216.541 217.502 218.983 215.668 220.635C213.834 222.286 211.168 223.112 207.668 223.112ZM212.603 202.326C212.603 199.989 212.183 198.169 211.343 196.867C210.517 195.551 209.334 194.894 207.794 194.894C206.227 194.894 205.044 195.523 204.246 196.783C203.462 198.043 203.07 199.933 203.07 202.452C203.07 204.916 203.455 206.77 204.225 208.016C205.009 209.248 206.185 209.864 207.752 209.864C209.32 209.864 210.517 209.213 211.343 207.911C212.183 206.595 212.603 204.734 212.603 202.326ZM239.105 209.486C238.321 211.208 237.32 212.46 236.102 213.244C234.898 214.028 233.464 214.42 231.798 214.42C229.39 214.42 227.543 213.685 226.255 212.215C224.967 210.732 224.323 208.562 224.323 205.707V191.282H230.223V204.027C230.223 206.014 230.559 207.512 231.231 208.52C231.903 209.514 232.911 210.011 234.255 210.011C235.682 210.011 236.83 209.402 237.698 208.184C238.58 206.952 239.021 205.378 239.021 203.46V191.282H244.921V208.919C244.921 209.885 244.935 210.795 244.963 211.648C244.991 212.488 245.033 213.272 245.089 214H239.462C239.378 212.992 239.315 212.11 239.273 211.354C239.231 210.599 239.21 209.976 239.21 209.486H239.105ZM256.41 214.42C254.213 214.42 252.498 213.825 251.266 212.635C250.035 211.431 249.419 209.745 249.419 207.575C249.419 205.224 250.182 203.439 251.707 202.221C253.247 201.003 255.473 200.367 258.384 200.311L263.276 200.227V199.072C263.276 197.588 263.017 196.489 262.499 195.775C261.981 195.048 261.135 194.684 259.959 194.684C258.867 194.684 258.062 194.936 257.544 195.439C257.04 195.929 256.725 196.748 256.599 197.896L250.448 197.602C251.217 193.109 254.472 190.862 260.211 190.862C263.08 190.862 265.292 191.569 266.846 192.983C268.399 194.397 269.176 196.405 269.176 199.009V207.281C269.176 208.555 269.316 209.437 269.596 209.927C269.89 210.403 270.373 210.641 271.045 210.641C271.493 210.641 271.927 210.599 272.346 210.515V213.706C271.619 213.888 270.996 214.021 270.478 214.105C269.96 214.203 269.323 214.252 268.567 214.252C267.083 214.252 265.985 213.888 265.271 213.16C264.571 212.432 264.151 211.361 264.011 209.948H263.885C263.059 211.431 262.023 212.551 260.778 213.307C259.532 214.049 258.076 214.42 256.41 214.42ZM263.276 203.481L260.253 203.523C258.867 203.593 257.894 203.74 257.334 203.964C256.76 204.216 256.319 204.594 256.012 205.098C255.718 205.602 255.571 206.273 255.571 207.113C255.571 208.191 255.816 208.996 256.305 209.528C256.809 210.046 257.474 210.305 258.3 210.305C259.224 210.305 260.071 210.053 260.841 209.549C261.596 209.045 262.191 208.352 262.625 207.47C263.059 206.574 263.276 205.63 263.276 204.636V203.481ZM284.823 223.112C282.052 223.112 279.819 222.58 278.125 221.517C276.446 220.467 275.41 218.962 275.018 217.002L280.918 216.31C281.128 217.219 281.576 217.933 282.262 218.451C282.962 218.969 283.871 219.228 284.991 219.228C286.629 219.228 287.826 218.724 288.581 217.716C289.337 216.708 289.715 215.211 289.715 213.223L289.757 209.78H289.715C289.071 211.18 288.141 212.229 286.923 212.929C285.705 213.615 284.2 213.958 282.409 213.958C279.763 213.958 277.713 212.964 276.257 210.977C274.801 208.989 274.073 206.147 274.073 202.452C274.073 198.743 274.822 195.88 276.32 193.865C277.817 191.849 279.994 190.841 282.85 190.841C284.501 190.841 285.894 191.184 287.028 191.87C288.176 192.542 289.071 193.564 289.715 194.936H289.82C289.82 194.6 289.834 194.18 289.862 193.676C289.89 193.172 289.925 192.689 289.967 192.227C290.023 191.765 290.072 191.45 290.114 191.282H295.699C295.615 192.794 295.573 194.544 295.573 196.531V213.307C295.573 216.541 294.656 218.983 292.823 220.635C290.989 222.286 288.323 223.112 284.823 223.112ZM289.757 202.326C289.757 199.989 289.337 198.169 288.498 196.867C287.672 195.551 286.489 194.894 284.949 194.894C283.381 194.894 282.199 195.523 281.401 196.783C280.617 198.043 280.225 199.933 280.225 202.452C280.225 204.916 280.61 206.77 281.38 208.016C282.164 209.248 283.339 209.864 284.907 209.864C286.475 209.864 287.672 209.213 288.498 207.911C289.337 206.595 289.757 204.734 289.757 202.326ZM306.685 203.775C306.685 205.986 307.091 207.659 307.903 208.793C308.729 209.913 309.898 210.473 311.409 210.473C312.445 210.473 313.292 210.249 313.95 209.801C314.622 209.339 315.091 208.66 315.357 207.764L320.921 208.247C319.311 212.362 316.042 214.42 311.115 214.42C307.7 214.42 305.075 213.412 303.242 211.396C301.408 209.367 300.491 206.413 300.491 202.536C300.491 198.785 301.422 195.901 303.284 193.886C305.145 191.87 307.784 190.862 311.199 190.862C314.461 190.862 316.952 191.947 318.674 194.117C320.396 196.272 321.256 199.436 321.256 203.607V203.775H306.685ZM315.546 200.08C315.434 198.246 314.993 196.874 314.223 195.964C313.453 195.041 312.417 194.579 311.115 194.579C309.73 194.579 308.659 195.062 307.903 196.027C307.161 196.993 306.769 198.344 306.727 200.08H315.546Z" fill="#5C00FF"/>
<path d="M142.943 209.213H143.443V208.713H142.943V209.213ZM142.943 214V214.5H143.443V214H142.943ZM120.876 214H120.376V214.5H120.876V214ZM120.876 184.417V183.917H120.376V184.417H120.876ZM127.07 184.417H127.57V183.917H127.07V184.417ZM127.07 209.213H126.57V209.713H127.07V209.213ZM142.443 209.213V214H143.443V209.213H142.443ZM142.943 213.5H120.876V214.5H142.943V213.5ZM121.376 214V184.417H120.376V214H121.376ZM120.876 184.917H127.07V183.917H120.876V184.917ZM126.57 184.417V209.213H127.57V184.417H126.57ZM127.07 209.713H142.943V208.713H127.07V209.713ZM147.61 212.635L147.26 212.993L147.262 212.995L147.61 212.635ZM148.05 202.221L147.74 201.829L147.739 201.83L148.05 202.221ZM154.727 200.311L154.719 199.811L154.718 199.811L154.727 200.311ZM159.619 200.227L159.628 200.726L160.119 200.718V200.227H159.619ZM158.842 195.775L158.435 196.065L158.438 196.069L158.842 195.775ZM153.887 195.439L154.236 195.798L154.236 195.798L153.887 195.439ZM152.943 197.896L152.919 198.395L153.388 198.418L153.44 197.951L152.943 197.896ZM146.791 197.602L146.298 197.518L146.202 198.075L146.767 198.101L146.791 197.602ZM163.189 192.983L163.525 192.613L163.189 192.983ZM165.939 209.927L165.505 210.175L165.509 210.182L165.514 210.19L165.939 209.927ZM168.69 210.515H169.19V209.905L168.592 210.024L168.69 210.515ZM168.69 213.706L168.811 214.191L169.19 214.096V213.706H168.69ZM166.821 214.105L166.741 213.611L166.728 213.614L166.821 214.105ZM161.614 213.16L161.253 213.507L161.257 213.51L161.614 213.16ZM160.354 209.948L160.852 209.898L160.807 209.448H160.354V209.948ZM160.228 209.948V209.448H159.934L159.791 209.705L160.228 209.948ZM157.121 213.307L157.377 213.737L157.38 213.735L157.121 213.307ZM159.619 203.481H160.119V202.974L159.612 202.981L159.619 203.481ZM156.596 203.523L156.589 203.023L156.58 203.023L156.571 203.024L156.596 203.523ZM153.677 203.964L153.492 203.5L153.484 203.503L153.476 203.506L153.677 203.964ZM152.355 205.098L151.928 204.837L151.923 204.846L152.355 205.098ZM152.649 209.528L152.281 209.867L152.29 209.877L152.649 209.528ZM157.184 209.549L157.458 209.967L157.461 209.965L157.184 209.549ZM158.968 207.47L159.417 207.691L159.418 207.688L158.968 207.47ZM152.754 213.92C150.647 213.92 149.071 213.352 147.957 212.276L147.262 212.995C148.611 214.298 150.465 214.92 152.754 214.92V213.92ZM147.959 212.278C146.847 211.191 146.262 209.647 146.262 207.575H145.262C145.262 209.842 145.908 211.672 147.26 212.993L147.959 212.278ZM146.262 207.575C146.262 205.341 146.98 203.715 148.362 202.612L147.739 201.83C146.069 203.163 145.262 205.106 145.262 207.575H146.262ZM148.361 202.613C149.782 201.489 151.884 200.865 154.737 200.81L154.718 199.811C151.747 199.868 149.398 200.518 147.74 201.829L148.361 202.613ZM154.736 200.81L159.628 200.726L159.611 199.727L154.719 199.811L154.736 200.81ZM160.119 200.227V199.072H159.119V200.227H160.119ZM160.119 199.072C160.119 197.548 159.857 196.322 159.247 195.482L158.438 196.069C158.864 196.657 159.119 197.629 159.119 199.072H160.119ZM159.25 195.486C158.61 194.586 157.583 194.184 156.302 194.184V195.184C157.372 195.184 158.039 195.509 158.435 196.065L159.25 195.486ZM156.302 194.184C155.145 194.184 154.188 194.449 153.539 195.081L154.236 195.798C154.622 195.422 155.275 195.184 156.302 195.184V194.184ZM153.539 195.081C152.913 195.69 152.577 196.647 152.446 197.841L153.44 197.951C153.56 196.849 153.854 196.169 154.236 195.798L153.539 195.081ZM152.966 197.397L146.815 197.103L146.767 198.101L152.919 198.395L152.966 197.397ZM147.284 197.686C147.649 195.551 148.594 193.994 150.093 192.959C151.607 191.914 153.742 191.362 156.554 191.362V190.362C153.627 190.362 151.265 190.934 149.525 192.136C147.77 193.347 146.702 195.16 146.298 197.518L147.284 197.686ZM156.554 191.362C159.345 191.362 161.42 192.049 162.852 193.353L163.525 192.613C161.85 191.089 159.502 190.362 156.554 190.362V191.362ZM162.852 193.353C164.278 194.65 165.019 196.51 165.019 199.009H166.019C166.019 196.301 165.207 194.144 163.525 192.613L162.852 193.353ZM165.019 199.009V207.281H166.019V199.009H165.019ZM165.019 207.281C165.019 208.558 165.154 209.56 165.505 210.175L166.373 209.679C166.165 209.314 166.019 208.552 166.019 207.281H165.019ZM165.514 210.19C165.918 210.844 166.583 211.141 167.388 211.141V210.141C166.849 210.141 166.548 209.961 166.365 209.664L165.514 210.19ZM167.388 211.141C167.867 211.141 168.334 211.096 168.788 211.005L168.592 210.024C168.205 210.102 167.804 210.141 167.388 210.141V211.141ZM168.19 210.515V213.706H169.19V210.515H168.19ZM168.568 213.221C167.849 213.401 167.24 213.53 166.741 213.611L166.901 214.599C167.437 214.512 168.075 214.375 168.811 214.191L168.568 213.221ZM166.728 213.614C166.251 213.704 165.647 213.752 164.91 213.752V214.752C165.685 214.752 166.355 214.702 166.914 214.596L166.728 213.614ZM164.91 213.752C163.5 213.752 162.555 213.406 161.971 212.81L161.257 213.51C162.101 214.37 163.354 214.752 164.91 214.752V213.752ZM161.974 212.814C161.378 212.194 160.985 211.245 160.852 209.898L159.857 209.997C160.003 211.478 160.45 212.671 161.254 213.507L161.974 212.814ZM160.354 209.448H160.228V210.448H160.354V209.448ZM159.791 209.705C159.001 211.125 158.022 212.176 156.861 212.88L157.38 213.735C158.712 212.927 159.804 211.738 160.665 210.191L159.791 209.705ZM156.865 212.878C155.707 213.567 154.343 213.92 152.754 213.92V214.92C154.496 214.92 156.043 214.531 157.377 213.737L156.865 212.878ZM159.612 202.981L156.589 203.023L156.603 204.023L159.626 203.981L159.612 202.981ZM156.571 203.024C155.183 203.094 154.136 203.242 153.492 203.5L153.863 204.428C154.339 204.238 155.237 204.092 156.621 204.022L156.571 203.024ZM153.476 203.506C152.815 203.796 152.293 204.24 151.928 204.837L152.781 205.358C153.033 204.947 153.392 204.635 153.878 204.422L153.476 203.506ZM151.923 204.846C151.569 205.453 151.414 206.222 151.414 207.113H152.414C152.414 206.325 152.553 205.751 152.787 205.35L151.923 204.846ZM151.414 207.113C151.414 208.256 151.672 209.206 152.281 209.867L153.016 209.189C152.645 208.786 152.414 208.126 152.414 207.113H151.414ZM152.29 209.877C152.902 210.505 153.703 210.805 154.643 210.805V209.805C153.931 209.805 153.403 209.586 153.007 209.179L152.29 209.877ZM154.643 210.805C155.664 210.805 156.606 210.525 157.458 209.967L156.91 209.13C156.222 209.581 155.47 209.805 154.643 209.805V210.805ZM157.461 209.965C158.296 209.408 158.948 208.645 159.417 207.691L158.52 207.249C158.121 208.059 157.583 208.682 156.906 209.133L157.461 209.965ZM159.418 207.688C159.885 206.725 160.119 205.705 160.119 204.636H159.119C159.119 205.554 158.919 206.424 158.518 207.252L159.418 207.688ZM160.119 204.636V203.481H159.119V204.636H160.119ZM177.555 214V214.5H178.055V214H177.555ZM171.655 214H171.155V214.5H171.655V214ZM171.592 193.382L171.092 193.4L171.093 193.409L171.592 193.382ZM171.487 191.282V190.782H170.952L170.988 191.316L171.487 191.282ZM177.114 191.282L177.607 191.2L177.538 190.782H177.114V191.282ZM177.219 192.479L176.72 192.512L176.72 192.513L177.219 192.479ZM177.324 194.39L176.824 194.411L176.825 194.422L177.324 194.39ZM177.387 195.796H176.887V196.296H177.387V195.796ZM177.471 195.796V196.296H177.791L177.925 196.005L177.471 195.796ZM180.473 192.017L180.201 191.598L180.473 192.017ZM192.252 214V214.5H192.752V214H192.252ZM186.373 214H185.873V214.5H186.373V214ZM178.857 197.119L178.45 196.828L178.45 196.829L178.857 197.119ZM177.055 201.822V214H178.055V201.822H177.055ZM177.555 213.5H171.655V214.5H177.555V213.5ZM172.155 214V196.363H171.155V214H172.155ZM172.155 196.363C172.155 195.141 172.134 194.137 172.091 193.355L171.093 193.409C171.134 194.166 171.155 195.15 171.155 196.363H172.155ZM172.092 193.364C172.064 192.576 172.028 191.871 171.986 191.248L170.988 191.316C171.03 191.926 171.065 192.62 171.092 193.4L172.092 193.364ZM171.487 191.782H177.114V190.782H171.487V191.782ZM176.621 191.364C176.644 191.503 176.678 191.874 176.72 192.512L177.718 192.446C177.676 191.824 177.64 191.398 177.607 191.2L176.621 191.364ZM176.72 192.513C176.762 193.124 176.797 193.757 176.824 194.411L177.824 194.368C177.795 193.707 177.76 193.065 177.718 192.445L176.72 192.513ZM176.825 194.422C176.867 195.065 176.887 195.52 176.887 195.796H177.887C177.887 195.485 177.865 195.002 177.823 194.357L176.825 194.422ZM177.387 196.296H177.471V195.296H177.387V196.296ZM177.925 196.005C178.696 194.328 179.644 193.154 180.746 192.436L180.201 191.598C178.896 192.448 177.841 193.794 177.017 195.588L177.925 196.005ZM180.746 192.436C181.857 191.713 183.193 191.341 184.778 191.341V190.341C183.031 190.341 181.498 190.753 180.201 191.598L180.746 192.436ZM184.778 191.341C187.076 191.341 188.771 192.045 189.943 193.395L190.698 192.739C189.294 191.122 187.295 190.341 184.778 190.341V191.341ZM189.943 193.395C191.123 194.754 191.752 196.787 191.752 199.576H192.752C192.752 196.653 192.094 194.347 190.698 192.739L189.943 193.395ZM191.752 199.576V214H192.752V199.576H191.752ZM192.252 213.5H186.373V214.5H192.252V213.5ZM186.873 214V201.255H185.873V214H186.873ZM186.873 201.255C186.873 199.214 186.534 197.597 185.78 196.482L184.951 197.042C185.541 197.915 185.873 199.294 185.873 201.255H186.873ZM185.78 196.482C185.001 195.331 183.819 194.771 182.321 194.771V195.771C183.538 195.771 184.386 196.206 184.951 197.042L185.78 196.482ZM182.321 194.771C180.721 194.771 179.419 195.475 178.45 196.828L179.263 197.41C180.058 196.3 181.066 195.771 182.321 195.771V194.771ZM178.45 196.829C177.506 198.153 177.055 199.83 177.055 201.822H178.055C178.055 199.979 178.472 198.521 179.264 197.409L178.45 196.829ZM200.971 221.517L201.237 221.093L201.236 221.093L200.971 221.517ZM197.863 217.002L197.805 216.506L197.267 216.569L197.373 217.1L197.863 217.002ZM203.763 216.31L204.25 216.197L204.15 215.761L203.705 215.813L203.763 216.31ZM205.107 218.451L204.806 218.85L204.809 218.853L205.107 218.451ZM212.561 213.223L212.061 213.217V213.223H212.561ZM212.603 209.78L213.102 209.786L213.109 209.28H212.603V209.78ZM212.561 209.78V209.28H212.24L212.106 209.571L212.561 209.78ZM209.768 212.929L210.013 213.365L210.017 213.363L209.768 212.929ZM209.873 191.87L209.614 192.298L209.62 192.302L209.873 191.87ZM212.561 194.936L212.108 195.148L212.243 195.436H212.561V194.936ZM212.666 194.936V195.436H213.166V194.936H212.666ZM212.812 192.227L212.316 192.167L212.315 192.174L212.315 192.182L212.812 192.227ZM212.959 191.282V190.782H212.569L212.474 191.161L212.959 191.282ZM218.544 191.282L219.044 191.31L219.073 190.782H218.544V191.282ZM211.343 196.867L210.919 197.133L210.923 197.138L211.343 196.867ZM204.246 196.783L203.824 196.516L203.822 196.519L204.246 196.783ZM204.225 208.016L203.8 208.279L203.803 208.285L204.225 208.016ZM211.343 207.911L210.921 207.642L210.921 207.643L211.343 207.911ZM207.668 222.612C204.956 222.612 202.826 222.091 201.237 221.093L200.705 221.94C202.503 223.07 204.838 223.612 207.668 223.612V222.612ZM201.236 221.093C199.674 220.117 198.719 218.73 198.354 216.904L197.373 217.1C197.792 219.194 198.908 220.817 200.706 221.941L201.236 221.093ZM197.922 217.499L203.821 216.806L203.705 215.813L197.805 216.506L197.922 217.499ZM203.276 216.422C203.51 217.436 204.018 218.255 204.806 218.85L205.408 218.052C204.824 217.611 204.436 217.003 204.25 216.197L203.276 216.422ZM204.809 218.853C205.617 219.451 206.64 219.728 207.836 219.728V218.728C206.793 218.728 205.996 218.487 205.404 218.049L204.809 218.853ZM207.836 219.728C209.58 219.728 210.949 219.186 211.827 218.016L211.027 217.416C210.393 218.262 209.368 218.728 207.836 218.728V219.728ZM211.827 218.016C212.675 216.885 213.061 215.261 213.061 213.223H212.061C212.061 215.161 211.69 216.532 211.027 217.416L211.827 218.016ZM213.06 213.229L213.102 209.786L212.103 209.774L212.061 213.217L213.06 213.229ZM212.603 209.28H212.561V210.28H212.603V209.28ZM212.106 209.571C211.501 210.886 210.638 211.853 209.519 212.496L210.017 213.363C211.334 212.606 212.332 211.473 213.015 209.989L212.106 209.571ZM209.523 212.494C208.398 213.127 206.983 213.458 205.254 213.458V214.458C207.108 214.458 208.702 214.103 210.013 213.365L209.523 212.494ZM205.254 213.458C202.754 213.458 200.859 212.529 199.505 210.681L198.699 211.272C200.256 213.399 202.463 214.458 205.254 214.458V213.458ZM199.505 210.681C198.137 208.812 197.418 206.092 197.418 202.452H196.418C196.418 206.203 197.156 209.165 198.699 211.272L199.505 210.681ZM197.418 202.452C197.418 198.801 198.157 196.06 199.566 194.163L198.764 193.567C197.178 195.701 196.418 198.684 196.418 202.452H197.418ZM199.566 194.163C200.956 192.293 202.973 191.341 205.695 191.341V190.341C202.706 190.341 200.37 191.405 198.764 193.567L199.566 194.163ZM205.695 191.341C207.278 191.341 208.576 191.67 209.614 192.298L210.132 191.442C208.903 190.699 207.415 190.341 205.695 190.341V191.341ZM209.62 192.302C210.669 192.915 211.501 193.855 212.108 195.148L213.013 194.723C212.332 193.273 211.372 192.168 210.126 191.439L209.62 192.302ZM212.561 195.436H212.666V194.436H212.561V195.436ZM213.166 194.936C213.166 194.612 213.179 194.202 213.207 193.704L212.208 193.648C212.18 194.157 212.166 194.587 212.166 194.936H213.166ZM213.207 193.704C213.234 193.205 213.269 192.728 213.31 192.272L212.315 192.182C212.272 192.65 212.237 193.139 212.208 193.648L213.207 193.704ZM213.309 192.287C213.365 191.823 213.411 191.537 213.445 191.403L212.474 191.161C212.424 191.363 212.372 191.708 212.316 192.167L213.309 192.287ZM212.959 191.782H218.544V190.782H212.959V191.782ZM218.045 191.254C217.961 192.778 217.918 194.537 217.918 196.531H218.918C218.918 194.55 218.96 192.81 219.044 191.31L218.045 191.254ZM217.918 196.531V213.307H218.918V196.531H217.918ZM217.918 213.307C217.918 216.445 217.032 218.734 215.333 220.263L216.003 221.006C217.972 219.233 218.918 216.636 218.918 213.307H217.918ZM215.333 220.263C213.624 221.803 211.096 222.612 207.668 222.612V223.612C211.24 223.612 214.045 222.77 216.003 221.006L215.333 220.263ZM213.103 202.326C213.103 199.938 212.675 198.01 211.763 196.596L210.923 197.138C211.69 198.328 212.103 200.039 212.103 202.326H213.103ZM211.766 196.601C210.85 195.141 209.508 194.394 207.794 194.394V195.394C209.16 195.394 210.184 195.961 210.919 197.133L211.766 196.601ZM207.794 194.394C206.066 194.394 204.719 195.102 203.824 196.516L204.668 197.051C205.369 195.944 206.387 195.394 207.794 195.394V194.394ZM203.822 196.519C202.965 197.896 202.57 199.897 202.57 202.452H203.57C203.57 199.968 203.96 198.19 204.671 197.047L203.822 196.519ZM202.57 202.452C202.57 204.952 202.958 206.917 203.8 208.279L204.65 207.753C203.952 206.624 203.57 204.879 203.57 202.452H202.57ZM203.803 208.285C204.687 209.673 206.029 210.364 207.752 210.364V209.364C206.341 209.364 205.331 208.823 204.647 207.748L203.803 208.285ZM207.752 210.364C209.488 210.364 210.846 209.628 211.765 208.179L210.921 207.643C210.188 208.798 209.152 209.364 207.752 209.364V210.364ZM211.764 208.18C212.676 206.752 213.103 204.781 213.103 202.326H212.103C212.103 204.686 211.689 206.439 210.921 207.642L211.764 208.18ZM239.105 209.486V208.986H238.783L238.65 209.279L239.105 209.486ZM236.102 213.244L235.832 212.824L235.829 212.825L236.102 213.244ZM226.255 212.215L225.877 212.543L225.879 212.545L226.255 212.215ZM224.323 191.282V190.782H223.823V191.282H224.323ZM230.223 191.282H230.723V190.782H230.223V191.282ZM231.231 208.52L230.815 208.797L230.817 208.8L231.231 208.52ZM237.698 208.184L237.291 207.893L237.291 207.894L237.698 208.184ZM239.021 191.282V190.782H238.521V191.282H239.021ZM244.921 191.282H245.421V190.782H244.921V191.282ZM244.963 211.648L244.463 211.665L244.463 211.665L244.963 211.648ZM245.089 214V214.5H245.628L245.587 213.962L245.089 214ZM239.462 214L238.963 214.042L239.001 214.5H239.462V214ZM239.21 209.486H239.71V208.986H239.21V209.486ZM238.65 209.279C237.893 210.939 236.947 212.105 235.832 212.824L236.373 213.665C237.693 212.815 238.748 211.476 239.56 209.693L238.65 209.279ZM235.829 212.825C234.719 213.548 233.383 213.92 231.798 213.92V214.92C233.545 214.92 235.078 214.508 236.375 213.663L235.829 212.825ZM231.798 213.92C229.498 213.92 227.802 213.223 226.631 211.886L225.879 212.545C227.283 214.147 229.283 214.92 231.798 214.92V213.92ZM226.633 211.888C225.453 210.528 224.823 208.495 224.823 205.707H223.823C223.823 208.629 224.482 210.935 225.877 212.543L226.633 211.888ZM224.823 205.707V191.282H223.823V205.707H224.823ZM224.323 191.782H230.223V190.782H224.323V191.782ZM229.723 191.282V204.027H230.723V191.282H229.723ZM229.723 204.027C229.723 206.056 230.064 207.67 230.815 208.797L231.647 208.243C231.055 207.354 230.723 205.973 230.723 204.027H229.723ZM230.817 208.8C231.594 209.95 232.768 210.511 234.255 210.511V209.511C233.053 209.511 232.212 209.078 231.645 208.24L230.817 208.8ZM234.255 210.511C235.853 210.511 237.149 209.816 238.105 208.474L237.291 207.894C236.511 208.987 235.512 209.511 234.255 209.511V210.511ZM238.104 208.475C239.061 207.138 239.521 205.454 239.521 203.46H238.521C238.521 205.301 238.098 206.766 237.291 207.893L238.104 208.475ZM239.521 203.46V191.282H238.521V203.46H239.521ZM239.021 191.782H244.921V190.782H239.021V191.782ZM244.421 191.282V208.919H245.421V191.282H244.421ZM244.421 208.919C244.421 209.89 244.435 210.805 244.463 211.665L245.462 211.632C245.434 210.784 245.421 209.88 245.421 208.919H244.421ZM244.463 211.665C244.491 212.511 244.533 213.302 244.59 214.038L245.587 213.962C245.532 213.242 245.49 212.465 245.462 211.632L244.463 211.665ZM245.089 213.5H239.462V214.5H245.089V213.5ZM239.96 213.958C239.876 212.954 239.813 212.077 239.772 211.327L238.773 211.382C238.816 212.144 238.879 213.031 238.963 214.042L239.96 213.958ZM239.772 211.327C239.73 210.576 239.71 209.963 239.71 209.486H238.71C238.71 209.989 238.731 210.622 238.773 211.382L239.772 211.327ZM239.21 208.986H239.105V209.986H239.21V208.986ZM251.266 212.635L250.917 212.993L250.919 212.995L251.266 212.635ZM251.707 202.221L251.397 201.829L251.395 201.83L251.707 202.221ZM258.384 200.311L258.375 199.811L258.374 199.811L258.384 200.311ZM263.276 200.227L263.285 200.726L263.776 200.718V200.227H263.276ZM262.499 195.775L262.092 196.065L262.095 196.069L262.499 195.775ZM257.544 195.439L257.893 195.798L257.893 195.798L257.544 195.439ZM256.599 197.896L256.576 198.395L257.045 198.418L257.096 197.951L256.599 197.896ZM250.448 197.602L249.955 197.518L249.859 198.075L250.424 198.101L250.448 197.602ZM266.846 192.983L267.182 192.613L266.846 192.983ZM269.596 209.927L269.162 210.175L269.166 210.182L269.171 210.19L269.596 209.927ZM272.346 210.515H272.846V209.905L272.248 210.024L272.346 210.515ZM272.346 213.706L272.468 214.191L272.846 214.096V213.706H272.346ZM270.478 214.105L270.398 213.611L270.385 213.614L270.478 214.105ZM265.271 213.16L264.91 213.507L264.914 213.51L265.271 213.16ZM264.011 209.948L264.509 209.898L264.464 209.448H264.011V209.948ZM263.885 209.948V209.448H263.591L263.448 209.705L263.885 209.948ZM260.778 213.307L261.033 213.737L261.037 213.735L260.778 213.307ZM263.276 203.481H263.776V202.974L263.269 202.981L263.276 203.481ZM260.253 203.523L260.246 203.023L260.237 203.023L260.228 203.024L260.253 203.523ZM257.334 203.964L257.149 203.5L257.141 203.503L257.133 203.506L257.334 203.964ZM256.012 205.098L255.585 204.837L255.58 204.846L256.012 205.098ZM256.305 209.528L255.938 209.867L255.947 209.877L256.305 209.528ZM260.841 209.549L261.114 209.967L261.118 209.965L260.841 209.549ZM262.625 207.47L263.074 207.691L263.075 207.688L262.625 207.47ZM256.41 213.92C254.304 213.92 252.728 213.352 251.614 212.276L250.919 212.995C252.268 214.298 254.121 214.92 256.41 214.92V213.92ZM251.616 212.278C250.504 211.191 249.919 209.647 249.919 207.575H248.919C248.919 209.842 249.565 211.672 250.917 212.993L251.616 212.278ZM249.919 207.575C249.919 205.341 250.637 203.715 252.019 202.612L251.395 201.83C249.726 203.163 248.919 205.106 248.919 207.575H249.919ZM252.017 202.613C253.439 201.489 255.541 200.865 258.394 200.81L258.374 199.811C255.404 199.868 253.055 200.518 251.397 201.829L252.017 202.613ZM258.393 200.81L263.285 200.726L263.268 199.727L258.375 199.811L258.393 200.81ZM263.776 200.227V199.072H262.776V200.227H263.776ZM263.776 199.072C263.776 197.548 263.513 196.322 262.904 195.482L262.095 196.069C262.521 196.657 262.776 197.629 262.776 199.072H263.776ZM262.907 195.486C262.267 194.586 261.24 194.184 259.959 194.184V195.184C261.029 195.184 261.696 195.509 262.092 196.065L262.907 195.486ZM259.959 194.184C258.802 194.184 257.845 194.449 257.196 195.081L257.893 195.798C258.279 195.422 258.932 195.184 259.959 195.184V194.184ZM257.196 195.081C256.57 195.69 256.233 196.647 256.102 197.841L257.096 197.951C257.217 196.849 257.511 196.169 257.893 195.798L257.196 195.081ZM256.623 197.397L250.471 197.103L250.424 198.101L256.576 198.395L256.623 197.397ZM250.94 197.686C251.306 195.551 252.251 193.994 253.75 192.959C255.264 191.914 257.399 191.362 260.211 191.362V190.362C257.283 190.362 254.922 190.934 253.182 192.136C251.427 193.347 250.359 195.16 249.955 197.518L250.94 197.686ZM260.211 191.362C263.002 191.362 265.076 192.049 266.509 193.353L267.182 192.613C265.507 191.089 263.159 190.362 260.211 190.362V191.362ZM266.509 193.353C267.934 194.65 268.676 196.51 268.676 199.009H269.676C269.676 196.301 268.864 194.144 267.182 192.613L266.509 193.353ZM268.676 199.009V207.281H269.676V199.009H268.676ZM268.676 207.281C268.676 208.558 268.811 209.56 269.162 210.175L270.03 209.679C269.822 209.314 269.676 208.552 269.676 207.281H268.676ZM269.171 210.19C269.575 210.844 270.24 211.141 271.045 211.141V210.141C270.506 210.141 270.205 209.961 270.021 209.664L269.171 210.19ZM271.045 211.141C271.524 211.141 271.991 211.096 272.445 211.005L272.248 210.024C271.862 210.102 271.461 210.141 271.045 210.141V211.141ZM271.846 210.515V213.706H272.846V210.515H271.846ZM272.225 213.221C271.506 213.401 270.897 213.53 270.398 213.611L270.558 214.599C271.094 214.512 271.732 214.375 272.468 214.191L272.225 213.221ZM270.385 213.614C269.908 213.704 269.304 213.752 268.567 213.752V214.752C269.342 214.752 270.012 214.702 270.571 214.596L270.385 213.614ZM268.567 213.752C267.156 213.752 266.212 213.406 265.628 212.81L264.914 213.51C265.757 214.37 267.011 214.752 268.567 214.752V213.752ZM265.631 212.814C265.035 212.194 264.642 211.245 264.509 209.898L263.513 209.997C263.66 211.478 264.107 212.671 264.91 213.507L265.631 212.814ZM264.011 209.448H263.885V210.448H264.011V209.448ZM263.448 209.705C262.657 211.125 261.678 212.176 260.518 212.88L261.037 213.735C262.368 212.927 263.461 211.738 264.322 210.191L263.448 209.705ZM260.522 212.878C259.364 213.567 258 213.92 256.41 213.92V214.92C258.153 214.92 259.699 214.531 261.033 213.737L260.522 212.878ZM263.269 202.981L260.246 203.023L260.26 204.023L263.283 203.981L263.269 202.981ZM260.228 203.024C258.84 203.094 257.793 203.242 257.149 203.5L257.52 204.428C257.996 204.238 258.894 204.092 260.278 204.022L260.228 203.024ZM257.133 203.506C256.472 203.796 255.949 204.24 255.585 204.837L256.438 205.358C256.689 204.947 257.049 204.635 257.535 204.422L257.133 203.506ZM255.58 204.846C255.226 205.453 255.071 206.222 255.071 207.113H256.071C256.071 206.325 256.209 205.751 256.443 205.35L255.58 204.846ZM255.071 207.113C255.071 208.256 255.329 209.206 255.938 209.867L256.673 209.189C256.302 208.786 256.071 208.126 256.071 207.113H255.071ZM255.947 209.877C256.559 210.505 257.36 210.805 258.3 210.805V209.805C257.588 209.805 257.06 209.586 256.664 209.179L255.947 209.877ZM258.3 210.805C259.321 210.805 260.263 210.525 261.114 209.967L260.567 209.13C259.879 209.581 259.127 209.805 258.3 209.805V210.805ZM261.118 209.965C261.953 209.408 262.604 208.645 263.074 207.691L262.177 207.249C261.778 208.059 261.24 208.682 260.563 209.133L261.118 209.965ZM263.075 207.688C263.542 206.725 263.776 205.705 263.776 204.636H262.776C262.776 205.554 262.576 206.424 262.175 207.252L263.075 207.688ZM263.776 204.636V203.481H262.776V204.636H263.776ZM278.125 221.517L278.391 221.093L278.39 221.093L278.125 221.517ZM275.018 217.002L274.96 216.506L274.421 216.569L274.528 217.1L275.018 217.002ZM280.918 216.31L281.405 216.197L281.304 215.761L280.86 215.813L280.918 216.31ZM282.262 218.451L281.96 218.85L281.964 218.853L282.262 218.451ZM289.715 213.223L289.215 213.217V213.223H289.715ZM289.757 209.78L290.257 209.786L290.263 209.28H289.757V209.78ZM289.715 209.78V209.28H289.395L289.261 209.571L289.715 209.78ZM286.923 212.929L287.168 213.365L287.172 213.363L286.923 212.929ZM287.028 191.87L286.769 192.298L286.775 192.302L287.028 191.87ZM289.715 194.936L289.263 195.148L289.398 195.436H289.715V194.936ZM289.82 194.936V195.436H290.32V194.936H289.82ZM289.967 192.227L289.471 192.167L289.47 192.174L289.469 192.182L289.967 192.227ZM290.114 191.282V190.782H289.724L289.629 191.161L290.114 191.282ZM295.699 191.282L296.198 191.31L296.228 190.782H295.699V191.282ZM288.498 196.867L288.074 197.133L288.077 197.138L288.498 196.867ZM281.401 196.783L280.978 196.516L280.976 196.519L281.401 196.783ZM281.38 208.016L280.954 208.279L280.958 208.285L281.38 208.016ZM288.498 207.911L288.076 207.642L288.075 207.643L288.498 207.911ZM284.823 222.612C282.111 222.612 279.98 222.091 278.391 221.093L277.86 221.94C279.658 223.07 281.992 223.612 284.823 223.612V222.612ZM278.39 221.093C276.829 220.117 275.874 218.73 275.508 216.904L274.528 217.1C274.946 219.194 276.063 220.817 277.86 221.941L278.39 221.093ZM275.076 217.499L280.976 216.806L280.86 215.813L274.96 216.506L275.076 217.499ZM280.431 216.422C280.665 217.436 281.172 218.255 281.96 218.85L282.563 218.052C281.979 217.611 281.591 217.003 281.405 216.197L280.431 216.422ZM281.964 218.853C282.772 219.451 283.795 219.728 284.991 219.728V218.728C283.948 218.728 283.151 218.487 282.559 218.049L281.964 218.853ZM284.991 219.728C286.735 219.728 288.104 219.186 288.981 218.016L288.181 217.416C287.547 218.262 286.523 218.728 284.991 218.728V219.728ZM288.981 218.016C289.83 216.885 290.215 215.261 290.215 213.223H289.215C289.215 215.161 288.845 216.532 288.181 217.416L288.981 218.016ZM290.215 213.229L290.257 209.786L289.257 209.774L289.215 213.217L290.215 213.229ZM289.757 209.28H289.715V210.28H289.757V209.28ZM289.261 209.571C288.656 210.886 287.793 211.853 286.674 212.496L287.172 213.363C288.488 212.606 289.487 211.473 290.17 209.989L289.261 209.571ZM286.677 212.494C285.553 213.127 284.138 213.458 282.409 213.458V214.458C284.263 214.458 285.857 214.103 287.168 213.365L286.677 212.494ZM282.409 213.458C279.909 213.458 278.014 212.529 276.66 210.681L275.853 211.272C277.411 213.399 279.617 214.458 282.409 214.458V213.458ZM276.66 210.681C275.292 208.812 274.573 206.092 274.573 202.452H273.573C273.573 206.203 274.311 209.165 275.853 211.272L276.66 210.681ZM274.573 202.452C274.573 198.801 275.312 196.06 276.721 194.163L275.918 193.567C274.333 195.701 273.573 198.684 273.573 202.452H274.573ZM276.721 194.163C278.111 192.293 280.127 191.341 282.85 191.341V190.341C279.861 190.341 277.524 191.405 275.918 193.567L276.721 194.163ZM282.85 191.341C284.432 191.341 285.73 191.67 286.769 192.298L287.287 191.442C286.058 190.699 284.57 190.341 282.85 190.341V191.341ZM286.775 192.302C287.824 192.915 288.656 193.855 289.263 195.148L290.168 194.723C289.487 193.273 288.527 192.168 287.28 191.439L286.775 192.302ZM289.715 195.436H289.82V194.436H289.715V195.436ZM290.32 194.936C290.32 194.612 290.334 194.202 290.361 193.704L289.363 193.648C289.335 194.157 289.32 194.587 289.32 194.936H290.32ZM290.361 193.704C290.389 193.205 290.424 192.728 290.465 192.272L289.469 192.182C289.427 192.65 289.391 193.139 289.363 193.648L290.361 193.704ZM290.464 192.287C290.52 191.823 290.566 191.537 290.599 191.403L289.629 191.161C289.579 191.363 289.527 191.708 289.471 192.167L290.464 192.287ZM290.114 191.782H295.699V190.782H290.114V191.782ZM295.2 191.254C295.115 192.778 295.073 194.537 295.073 196.531H296.073C296.073 194.55 296.115 192.81 296.198 191.31L295.2 191.254ZM295.073 196.531V213.307H296.073V196.531H295.073ZM295.073 213.307C295.073 216.445 294.186 218.734 292.488 220.263L293.157 221.006C295.126 219.233 296.073 216.636 296.073 213.307H295.073ZM292.488 220.263C290.778 221.803 288.25 222.612 284.823 222.612V223.612C288.395 223.612 291.2 222.77 293.157 221.006L292.488 220.263ZM290.257 202.326C290.257 199.938 289.83 198.01 288.918 196.596L288.077 197.138C288.845 198.328 289.257 200.039 289.257 202.326H290.257ZM288.921 196.601C288.005 195.141 286.663 194.394 284.949 194.394V195.394C286.315 195.394 287.339 195.961 288.074 197.133L288.921 196.601ZM284.949 194.394C283.221 194.394 281.873 195.102 280.978 196.516L281.823 197.051C282.524 195.944 283.542 195.394 284.949 195.394V194.394ZM280.976 196.519C280.12 197.896 279.725 199.897 279.725 202.452H280.725C280.725 199.968 281.114 198.19 281.825 197.047L280.976 196.519ZM279.725 202.452C279.725 204.952 280.113 206.917 280.955 208.279L281.805 207.753C281.107 206.624 280.725 204.879 280.725 202.452H279.725ZM280.958 208.285C281.841 209.673 283.184 210.364 284.907 210.364V209.364C283.495 209.364 282.486 208.823 281.802 207.748L280.958 208.285ZM284.907 210.364C286.643 210.364 288 209.628 288.92 208.179L288.075 207.643C287.343 208.798 286.307 209.364 284.907 209.364V210.364ZM288.919 208.18C289.831 206.752 290.257 204.781 290.257 202.326H289.257C289.257 204.686 288.844 206.439 288.076 207.642L288.919 208.18ZM306.685 203.775V203.275H306.185V203.775H306.685ZM307.903 208.793L307.496 209.084L307.501 209.09L307.903 208.793ZM313.95 209.801L314.231 210.214L314.233 210.213L313.95 209.801ZM315.357 207.764L315.4 207.266L314.993 207.231L314.877 207.622L315.357 207.764ZM320.921 208.247L321.386 208.429L321.63 207.807L320.964 207.749L320.921 208.247ZM303.242 211.396L302.871 211.732L302.872 211.733L303.242 211.396ZM303.284 193.886L302.917 193.546L303.284 193.886ZM318.674 194.117L318.282 194.428L318.283 194.429L318.674 194.117ZM321.256 203.775V204.275H321.756V203.775H321.256ZM315.546 200.08V200.58H316.077L316.045 200.049L315.546 200.08ZM314.223 195.964L313.839 196.284L313.841 196.287L314.223 195.964ZM307.903 196.027L307.509 195.719L307.506 195.723L307.903 196.027ZM306.727 200.08L306.227 200.067L306.215 200.58H306.727V200.08ZM306.185 203.775C306.185 206.034 306.598 207.829 307.496 209.084L308.309 208.502C307.585 207.49 307.185 205.939 307.185 203.775H306.185ZM307.501 209.09C308.43 210.35 309.755 210.973 311.409 210.973V209.973C310.04 209.973 309.028 209.476 308.305 208.496L307.501 209.09ZM311.409 210.973C312.516 210.973 313.469 210.733 314.231 210.214L313.668 209.387C313.115 209.764 312.375 209.973 311.409 209.973V210.973ZM314.233 210.213C315.013 209.677 315.542 208.895 315.836 207.906L314.877 207.622C314.639 208.425 314.231 209.001 313.667 209.389L314.233 210.213ZM315.313 208.262L320.877 208.745L320.964 207.749L315.4 207.266L315.313 208.262ZM320.455 208.065C319.683 210.038 318.527 211.49 316.996 212.454C315.46 213.42 313.51 213.92 311.115 213.92V214.92C313.647 214.92 315.795 214.391 317.528 213.3C319.266 212.206 320.548 210.571 321.386 208.429L320.455 208.065ZM311.115 213.92C307.803 213.92 305.328 212.946 303.612 211.06L302.872 211.733C304.823 213.878 307.597 214.92 311.115 214.92V213.92ZM303.613 211.061C301.891 209.156 300.991 206.341 300.991 202.536H299.991C299.991 206.486 300.925 209.578 302.871 211.732L303.613 211.061ZM300.991 202.536C300.991 198.864 301.902 196.119 303.651 194.225L302.917 193.546C300.942 195.684 299.991 198.706 299.991 202.536H300.991ZM303.651 194.225C305.396 192.336 307.887 191.362 311.199 191.362V190.362C307.681 190.362 304.895 191.404 302.917 193.546L303.651 194.225ZM311.199 191.362C314.338 191.362 316.673 192.399 318.282 194.428L319.066 193.806C317.232 191.495 314.583 190.362 311.199 190.362V191.362ZM318.283 194.429C319.906 196.46 320.756 199.494 320.756 203.607H321.756C321.756 199.378 320.885 196.084 319.065 193.805L318.283 194.429ZM320.756 203.607V203.775H321.756V203.607H320.756ZM321.256 203.275H306.685V204.275H321.256V203.275ZM316.045 200.049C315.929 198.163 315.473 196.667 314.604 195.641L313.841 196.287C314.513 197.081 314.938 198.329 315.046 200.11L316.045 200.049ZM314.607 195.644C313.733 194.596 312.552 194.079 311.115 194.079V195.079C312.283 195.079 313.172 195.485 313.839 196.284L314.607 195.644ZM311.115 194.079C309.599 194.079 308.373 194.615 307.509 195.719L308.297 196.335C308.945 195.508 309.861 195.079 311.115 195.079V194.079ZM307.506 195.723C306.678 196.802 306.271 198.269 306.227 200.067L307.227 200.092C307.268 198.418 307.644 197.185 308.299 196.332L307.506 195.723ZM306.727 200.58H315.546V199.58H306.727V200.58Z" fill="#5C5C5C"/>
<path d="M187.803 133.667C187.803 139.419 188.993 143.857 191.375 146.98C193.756 150.104 197.235 151.666 201.812 151.666C205.43 151.666 208.321 150.939 210.486 149.485C212.681 148.032 214.166 146.192 214.939 143.965L222.268 146.053C219.268 153.969 212.45 157.928 201.812 157.928C194.39 157.928 188.73 155.717 184.834 151.294C180.968 146.872 179.036 140.301 179.036 131.58C179.036 123.292 180.968 116.937 184.834 112.515C188.73 108.093 194.281 105.882 201.487 105.882C208.878 105.882 214.413 108.108 218.093 112.562C221.773 117.015 223.613 123.679 223.613 132.554V133.667H187.803ZM214.985 127.266C214.521 121.978 213.176 118.128 210.95 115.716C208.723 113.273 205.522 112.051 201.348 112.051C197.297 112.051 194.08 113.412 191.699 116.133C189.349 118.824 188.081 122.535 187.896 127.266H214.985Z" fill="#5C00FF"/>
<path d="M187.803 133.667V133.167H187.303V133.667H187.803ZM210.486 149.485L210.21 149.068L210.207 149.07L210.486 149.485ZM214.939 143.965L215.076 143.484L214.622 143.355L214.467 143.801L214.939 143.965ZM222.268 146.053L222.736 146.23L222.928 145.721L222.405 145.572L222.268 146.053ZM184.834 151.294L184.458 151.624L184.459 151.625L184.834 151.294ZM184.834 112.515L184.459 112.185L184.458 112.186L184.834 112.515ZM223.613 133.667V134.167H224.113V133.667H223.613ZM214.985 127.266V127.766H215.531L215.483 127.222L214.985 127.266ZM210.95 115.716L210.58 116.053L210.582 116.055L210.95 115.716ZM191.699 116.133L191.323 115.804L191.323 115.804L191.699 116.133ZM187.896 127.266L187.396 127.247L187.376 127.766H187.896V127.266ZM187.303 133.667C187.303 139.48 188.505 144.041 190.977 147.284L191.772 146.677C189.482 143.673 188.303 139.359 188.303 133.667H187.303ZM190.977 147.284C193.469 150.553 197.108 152.166 201.812 152.166V151.166C197.362 151.166 194.042 149.655 191.772 146.677L190.977 147.284ZM201.812 152.166C205.492 152.166 208.491 151.427 210.765 149.9L210.207 149.07C208.151 150.451 205.368 151.166 201.812 151.166V152.166ZM210.762 149.902C213.038 148.396 214.598 146.472 215.411 144.129L214.467 143.801C213.734 145.912 212.325 147.668 210.21 149.068L210.762 149.902ZM214.802 144.446L222.131 146.534L222.405 145.572L215.076 143.484L214.802 144.446ZM221.801 145.876C220.338 149.735 217.956 152.609 214.653 154.527C211.342 156.449 207.072 157.428 201.812 157.428V158.428C207.189 158.428 211.647 157.428 215.155 155.391C218.672 153.35 221.198 150.287 222.736 146.23L221.801 145.876ZM201.812 157.428C194.493 157.428 188.987 155.252 185.209 150.964L184.459 151.625C188.474 156.182 194.286 158.428 201.812 158.428V157.428ZM185.21 150.965C181.455 146.67 179.536 140.237 179.536 131.58H178.536C178.536 140.365 180.481 147.075 184.458 151.623L185.21 150.965ZM179.536 131.58C179.536 123.364 181.452 117.144 185.21 112.844L184.458 112.186C180.485 116.731 178.536 123.221 178.536 131.58H179.536ZM185.209 112.846C188.99 108.555 194.39 106.382 201.487 106.382V105.382C194.173 105.382 188.471 107.631 184.459 112.185L185.209 112.846ZM201.487 106.382C208.774 106.382 214.148 108.573 217.708 112.88L218.479 112.243C214.678 107.644 208.982 105.382 201.487 105.382V106.382ZM217.708 112.88C221.283 117.206 223.113 123.736 223.113 132.554H224.113C224.113 123.622 222.263 116.823 218.479 112.243L217.708 112.88ZM223.113 132.554V133.667H224.113V132.554H223.113ZM223.613 133.167H187.803V134.167H223.613V133.167ZM215.483 127.222C215.015 121.887 213.653 117.907 211.317 115.377L210.582 116.055C212.7 118.349 214.028 122.069 214.487 127.31L215.483 127.222ZM211.319 115.379C208.974 112.806 205.624 111.551 201.348 111.551V112.551C205.421 112.551 208.472 113.74 210.58 116.053L211.319 115.379ZM201.348 111.551C197.172 111.551 193.811 112.96 191.323 115.804L192.076 116.463C194.35 113.863 197.421 112.551 201.348 112.551V111.551ZM191.323 115.804C188.876 118.605 187.584 122.438 187.396 127.247L188.395 127.286C188.578 122.631 189.822 119.042 192.076 116.462L191.323 115.804ZM187.896 127.766H214.985V126.766H187.896V127.766Z" fill="#5C5C5C"/>
<path d="M299.803 133.667C299.803 139.419 300.993 143.857 303.375 146.98C305.756 150.104 309.235 151.666 313.812 151.666C317.43 151.666 320.321 150.939 322.486 149.485C324.681 148.032 326.166 146.192 326.939 143.965L334.268 146.053C331.268 153.969 324.45 157.928 313.812 157.928C306.39 157.928 300.73 155.717 296.834 151.294C292.968 146.872 291.036 140.301 291.036 131.58C291.036 123.292 292.968 116.937 296.834 112.515C300.73 108.093 306.281 105.882 313.487 105.882C320.878 105.882 326.413 108.108 330.093 112.562C333.773 117.015 335.613 123.679 335.613 132.554V133.667H299.803ZM326.985 127.266C326.521 121.978 325.176 118.128 322.95 115.716C320.723 113.273 317.522 112.051 313.348 112.051C309.297 112.051 306.08 113.412 303.699 116.133C301.349 118.824 300.081 122.535 299.896 127.266H326.985Z" fill="#5C00FF"/>
<path d="M299.803 133.667V133.167H299.303V133.667H299.803ZM322.486 149.485L322.21 149.068L322.207 149.07L322.486 149.485ZM326.939 143.965L327.076 143.484L326.622 143.355L326.467 143.801L326.939 143.965ZM334.268 146.053L334.736 146.23L334.928 145.721L334.405 145.572L334.268 146.053ZM296.834 151.294L296.458 151.624L296.459 151.625L296.834 151.294ZM296.834 112.515L296.459 112.185L296.458 112.186L296.834 112.515ZM335.613 133.667V134.167H336.113V133.667H335.613ZM326.985 127.266V127.766H327.531L327.483 127.222L326.985 127.266ZM322.95 115.716L322.58 116.053L322.582 116.055L322.95 115.716ZM303.699 116.133L303.323 115.804L303.323 115.804L303.699 116.133ZM299.896 127.266L299.396 127.247L299.376 127.766H299.896V127.266ZM299.303 133.667C299.303 139.48 300.505 144.041 302.977 147.284L303.772 146.677C301.482 143.673 300.303 139.359 300.303 133.667H299.303ZM302.977 147.284C305.469 150.553 309.108 152.166 313.812 152.166V151.166C309.362 151.166 306.042 149.655 303.772 146.677L302.977 147.284ZM313.812 152.166C317.492 152.166 320.491 151.427 322.765 149.9L322.207 149.07C320.151 150.451 317.368 151.166 313.812 151.166V152.166ZM322.762 149.902C325.038 148.396 326.598 146.472 327.411 144.129L326.467 143.801C325.734 145.912 324.325 147.668 322.21 149.068L322.762 149.902ZM326.802 144.446L334.131 146.534L334.405 145.572L327.076 143.484L326.802 144.446ZM333.801 145.876C332.338 149.735 329.956 152.609 326.653 154.527C323.342 156.449 319.072 157.428 313.812 157.428V158.428C319.189 158.428 323.647 157.428 327.155 155.391C330.672 153.35 333.198 150.287 334.736 146.23L333.801 145.876ZM313.812 157.428C306.493 157.428 300.987 155.252 297.209 150.964L296.459 151.625C300.474 156.182 306.286 158.428 313.812 158.428V157.428ZM297.21 150.965C293.455 146.67 291.536 140.237 291.536 131.58H290.536C290.536 140.365 292.481 147.075 296.458 151.623L297.21 150.965ZM291.536 131.58C291.536 123.364 293.452 117.144 297.21 112.844L296.458 112.186C292.485 116.731 290.536 123.221 290.536 131.58H291.536ZM297.209 112.846C300.99 108.555 306.39 106.382 313.487 106.382V105.382C306.173 105.382 300.471 107.631 296.459 112.185L297.209 112.846ZM313.487 106.382C320.774 106.382 326.148 108.573 329.708 112.88L330.479 112.243C326.678 107.644 320.982 105.382 313.487 105.382V106.382ZM329.708 112.88C333.283 117.206 335.113 123.736 335.113 132.554H336.113C336.113 123.622 334.263 116.823 330.479 112.243L329.708 112.88ZM335.113 132.554V133.667H336.113V132.554H335.113ZM335.613 133.167H299.803V134.167H335.613V133.167ZM327.483 127.222C327.015 121.887 325.653 117.907 323.317 115.377L322.582 116.055C324.7 118.349 326.028 122.069 326.487 127.31L327.483 127.222ZM323.319 115.379C320.974 112.806 317.624 111.551 313.348 111.551V112.551C317.421 112.551 320.472 113.74 322.58 116.053L323.319 115.379ZM313.348 111.551C309.172 111.551 305.811 112.96 303.323 115.804L304.076 116.463C306.35 113.863 309.421 112.551 313.348 112.551V111.551ZM303.323 115.804C300.876 118.605 299.584 122.438 299.396 127.247L300.395 127.286C300.578 122.631 301.822 119.042 304.076 116.462L303.323 115.804ZM299.896 127.766H326.985V126.766H299.896V127.766Z" fill="#5C5C5C"/>
<defs>
<clipPath id="clip0_137_47">
<rect x="178" y="52" width="15" height="17" fill="white"/>
</clipPath>
<clipPath id="clip1_137_47">
<rect x="228" width="15" height="17" fill="white"/>
</clipPath>
<clipPath id="clip2_137_47">
<rect x="178" y="6" width="15" height="17" fill="white"/>
</clipPath>
<clipPath id="clip3_137_47">
<rect x="131" y="52" width="15" height="17" fill="white"/>
</clipPath>
<clipPath id="clip4_137_47">
<rect x="67" y="21" width="15" height="17" fill="white"/>
</clipPath>
</defs>
</svg>
